<?xml version="1.0" encoding="UTF-8"?> <svg xmlns="http://www.w3.org/2000/svg" width="186.917" height="78.689"><defs><clipPath id="a"><path d="M0 0h140.188v59.017H0z"></path></clipPath></defs><path d="M91.2 4.608H86.97V3.107h10.3v1.501h-4.254v12.176h-1.814zM106 10.372h-5.388v4.932h6.028v1.482h-7.845V3.107h7.536v1.481h-5.719V8.91H106z" fill="#231f20"></path><g clip-path="url(#a)" transform="matrix(1.33333 0 0 -1.33333 0 78.689)"><path d="M89.004 46.746c-.48-.242-1.484-.485-2.754-.485-2.941 0-5.142 1.828-5.142 5.205 0 3.228 2.214 5.39 5.45 5.39 1.286 0 2.122-.276 2.477-.459l-.342-1.08c-.492.242-1.222.428-2.09.428-2.443 0-4.072-1.539-4.072-4.233 0-2.526 1.473-4.126 3.994-4.126.838 0 1.676.17 2.217.426zM92.053 56.687v-4.292H97.1v4.291h1.365V46.43H97.1v4.808h-5.047v-4.809h-1.361v10.259zM100.799 46.428v10.258h1.488l3.326-5.19c.76-1.201 1.379-2.284 1.862-3.332l.043.014c-.123 1.37-.153 2.618-.153 4.216v4.292h1.27V46.428h-1.363l-3.313 5.207c-.73 1.14-1.426 2.314-1.935 3.424l-.047-.016c.078-1.293.093-2.527.093-4.23v-4.385zM112.333 46.428h-1.363v10.258h1.363zM121.962 46.746c-.48-.242-1.486-.485-2.756-.485-2.943 0-5.142 1.828-5.142 5.205 0 3.228 2.214 5.39 5.45 5.39 1.286 0 2.122-.276 2.477-.459l-.34-1.08c-.496.242-1.22.428-2.09.428-2.445 0-4.072-1.539-4.072-4.233 0-2.526 1.473-4.126 3.994-4.126.838 0 1.672.17 2.215.426zM123.663 56.687h1.346V51.74h.047c.277.395.558.759.822 1.093l3.19 3.852h1.671l-3.777-4.353 4.07-5.904h-1.594l-3.423 5.035-1.006-1.125v-3.91h-1.346zM138.061 59.017l-1.982-1.78h-1.102l1.441 1.78zm-.729-8.326l-1.039 2.954c-.232.669-.386 1.278-.539 1.872h-.032c-.152-.594-.306-1.233-.527-1.86l-1.02-2.966zm-3.439-1.034l-1.082-3.228h-1.39l3.557 10.258h1.61l3.563-10.258h-1.442l-1.115 3.228zM66.56 40.708V34.62c0-2.284 1.038-3.258 2.433-3.258 1.533 0 2.539 1.006 2.539 3.258v6.088h1.359v-5.996c0-3.152-1.685-4.43-3.946-4.43-2.138 0-3.747 1.189-3.747 4.383v6.043zM75.228 30.45v10.258h1.487l3.33-5.192c.76-1.2 1.376-2.283 1.855-3.332l.05.016c-.126 1.37-.156 2.617-.156 4.215v4.293h1.269V30.45h-1.36l-3.316 5.207c-.726 1.14-1.424 2.313-1.935 3.424l-.047-.018c.078-1.293.094-2.525.094-4.228V30.45zM86.766 30.45h-1.364v10.258h1.364zM91.404 30.45l-3.42 10.258h1.471l1.63-5.05c.43-1.389.817-2.638 1.112-3.84h.03c.292 1.19.712 2.483 1.19 3.82l1.768 5.07h1.442L92.892 30.45zM103.139 35.259h-4.041v-3.7h4.525v-1.11h-5.88v10.259h5.648v-1.111h-4.293v-3.241h4.04zM106.715 35.898h1.38c1.439 0 2.353.774 2.353 1.947 0 1.326-.972 1.906-2.397 1.906-.652 0-1.107-.047-1.336-.108zm-1.346 4.674c.68.122 1.674.212 2.588.212 1.44 0 2.384-.273 3.015-.835.517-.458.82-1.157.82-1.966 0-1.34-.865-2.236-1.945-2.603v-.045c.787-.273 1.269-1.005 1.514-2.069.343-1.43.587-2.424.806-2.816h-1.396c-.172.303-.4 1.173-.68 2.45-.311 1.416-.881 1.948-2.105 1.993h-1.271V30.45h-1.346zM112.987 31.225l5.773 8.327v.045h-5.279v1.11h7.047v-.803l-5.76-8.297v-.047h5.836v-1.11h-7.617zM123.604 30.45h-1.355v10.258h1.355zM127.939 39.582h-3.17v1.126h7.72v-1.126h-3.186V30.45h-1.365zM137.372 34.712l-1.035 2.954c-.235.669-.389 1.277-.545 1.872h-.033c-.157-.595-.307-1.233-.526-1.86l-1.02-2.966zm-3.438-1.033l-1.085-3.23h-1.39l3.556 10.259h1.617l3.556-10.26h-1.44l-1.114 3.23zM68.613 14.278l-3.42 10.26h1.475l1.623-5.053c.433-1.386.822-2.636 1.115-3.838h.03c.296 1.19.712 2.483 1.195 3.82l1.763 5.07h1.442l-3.73-10.259zM78.23 24.537h1.366V15.39h4.456v-1.112H78.23zM86.76 14.277h-1.362v10.26h1.362zM90.242 15.282c.28-.046.652-.06 1.131-.06 1.39 0 2.676.5 2.676 1.994 0 1.383-1.217 1.978-2.694 1.978h-1.113zm0 4.901h1.227c1.406 0 2.244.746 2.244 1.736 0 1.19-.914 1.676-2.28 1.676-.615 0-.974-.045-1.19-.092zm-1.348 4.203c.588.138 1.537.228 2.461.228 1.348 0 2.221-.228 2.852-.746.543-.396.881-1.004.881-1.812 0-1.003-.682-1.873-1.764-2.253v-.046c.992-.229 2.152-1.035 2.152-2.555 0-.886-.355-1.568-.898-2.057-.709-.654-1.89-.96-3.594-.96-.926 0-1.64.064-2.09.121zM102.676 19.088h-4.041V15.39h4.518v-1.113H97.27v10.26h5.654v-1.11h-4.29v-3.242h4.042zM106.252 19.727h1.377c1.436 0 2.352.774 2.352 1.948 0 1.323-.976 1.904-2.401 1.904-.648 0-1.096-.046-1.328-.106zm-1.35 4.674c.684.123 1.676.213 2.586.213 1.442 0 2.382-.275 3.019-.836.51-.456.822-1.156.822-1.965 0-1.34-.865-2.237-1.953-2.604v-.044c.791-.273 1.271-1.005 1.521-2.07.336-1.43.584-2.423.801-2.816h-1.39c-.172.303-.407 1.174-.684 2.449-.309 1.417-.878 1.947-2.104 1.995h-1.268v-4.445h-1.35zM120.556 14.597c-.48-.242-1.492-.485-2.76-.485-2.937 0-5.14 1.828-5.14 5.205 0 3.227 2.22 5.388 5.45 5.388 1.288 0 2.124-.274 2.479-.457l-.338-1.081c-.5.243-1.226.429-2.09.429-2.451 0-4.076-1.538-4.076-4.233 0-2.526 1.47-4.126 3.998-4.126.832 0 1.668.169 2.213.426zM123.604 14.277h-1.362v10.26h1.362z" fill="#231f20"></path><path d="M46.363 10.405c-.982-.98-2.063-1.863-3.192-2.676-2.341.31-4.242 1.651-5.88 3.883-1.701 2.324-3.12 5.61-4.444 9.69-.84 2.596-1.552 5.47-2.13 8.6-.577 3.14-1.026 6.562-1.338 10.232a268.134 268.134 0 0 0-.452 5.73c-.123 1.97-.214 3.997-.236 6.064l-.01 1.842c6.88-.079 13.133-2.908 17.68-7.45 4.61-4.61 7.479-10.964 7.479-17.957v-.005c0-6.992-2.868-13.345-7.477-17.953m-17.98-7.467h-.005A25.27 25.27 0 0 0 14.424 7.14h27.914a25.277 25.277 0 0 0-13.955-4.202M2.923 28.36v.006c.003 6.99 2.864 13.344 7.478 17.951 4.554 4.548 10.816 7.382 17.714 7.455a131.81 131.81 0 0 0-.207-6.907 216.285 216.285 0 0 0-.481-6.634c-.311-3.692-.76-7.134-1.34-10.287-.578-3.147-1.291-6.036-2.135-8.642-1.325-4.08-2.745-7.366-4.45-9.69-1.643-2.244-3.553-3.584-5.91-3.887-1.13.817-2.208 1.696-3.191 2.68-4.614 4.608-7.477 10.961-7.477 17.955M0 56.707V28.152h.009c.057-7.722 3.224-14.726 8.32-19.815C13.469 3.2 20.565.013 28.38.013h.003c7.813 0 14.89 3.187 20.014 8.322a28.296 28.296 0 0 1 8.286 19.817h.009V56.707zM140.038 0h-8.504v8.504h8.504z" fill="#761a4c"></path><path d="M120.483 2.216c.56 0 .97.118 1.285.25l.225-1.197c-.344-.158-1.018-.33-1.826-.33-2.014 0-3.327 1.29-3.327 3.277 0 1.922 1.327 3.408 3.59 3.408.598 0 1.207-.134 1.576-.29l-.29-1.223c-.264.13-.649.25-1.233.25-1.244 0-1.986-.91-1.973-2.08 0-1.315.862-2.065 1.973-2.065M114.92.926c-.583 0-.994.448-.994 1.04 0 .604.424 1.039 1.008 1.039.596 0 1.006-.421 1.006-1.04 0-.591-.396-1.038-1.02-1.038m-7.192.143l-.08.96h-.039c-.277-.446-.914-1.103-2.08-1.103s-2.238.697-2.238 2.789V7.48h1.63V3.99c0-1.063.344-1.75 1.206-1.75.662 0 1.085.45 1.244.87.066.13.092.317.092.5v3.87h1.63V2.99c0-.76.025-1.393.052-1.92zM96.336.927c-.582 0-.993.447-.993 1.039 0 .604.424 1.039 1.006 1.039.596 0 1.006-.421 1.006-1.04 0-.591-.396-1.038-1.019-1.038m-3.286.143h-1.509l-.768 2.607a19.36 19.36 0 0 0-.492 2.053h-.026a19.608 19.608 0 0 0-.49-2.053l-.82-2.607h-1.524l-1.908 6.41h1.67l.66-2.91c.161-.682.307-1.38.426-2.078h.026c.132.698.343 1.408.517 2.067l.848 2.92h1.324l.81-2.841c.196-.75.368-1.448.514-2.146h.028c.091.698.25 1.396.421 2.146l.717 2.842h1.604zm-10.134 0h-1.51l-.768 2.607c-.199.67-.343 1.275-.49 2.053h-.027a19.372 19.372 0 0 0-.489-2.053L78.81 1.07h-1.523L75.38 7.48h1.67l.662-2.91c.16-.682.304-1.38.423-2.078h.026c.135.698.345 1.408.517 2.067l.848 2.92h1.324l.81-2.841c.196-.75.368-1.448.516-2.146h.026c.092.698.252 1.396.424 2.146l.716 2.842h1.602zm-10.133 0h-1.51l-.769 2.607c-.2.67-.344 1.275-.49 2.053h-.028a19.634 19.634 0 0 0-.488-2.053l-.82-2.607h-1.526l-1.906 6.41h1.67l.662-2.91c.158-.682.302-1.38.422-2.078h.027c.133.698.344 1.408.516 2.067l.847 2.92h1.326l.807-2.841c.2-.75.371-1.448.518-2.146h.025c.094.698.252 1.396.424 2.146l.717 2.842h1.603zm49.807 0v.935l2.424 3.079c.332.396.61.712.942 1.078v.028h-3.125v1.29h5.131v1.024h-15.479V1.07h-1.629v7.434h-10.319V7.48h1.551V6.269h-1.55v-2.83c0-.787.212-1.184.833-1.184.291 0 .451.014.635.065l.027-1.223c-.238-.092-.676-.17-1.178-.17-.609 0-1.099.197-1.404.525-.358.368-.516.96-.516 1.803v3.014h-.916v1.21h.916v1.025H65.226V0h62.736v1.07z" fill="#231f20"></path><path d="M124.63 2.388V2.36h3.332v4.125l-2.377-3.006c-.318-.383-.623-.75-.955-1.092" fill="#231f20"></path></g></svg> 